# xmcd CD database file
#
# Track frame offsets:
#	150
#	18817
#	37820
#
# Disc length: 882 seconds
#
# Revision: 0
# Processed by: cddbd v1.5.1PL0 Copyright (c) Steve Scherf et al.
# Submitted via: CDex 1.51
#
DISCID=12037003
DTITLE=爆風スランプ - 東京ラテン系セニョリータ
DYEAR=1900
DGENRE=JPop
TTITLE0=東京ラテン系セニョリータ
TTITLE1=愛のとんかつ
TTITLE2=東京ラテン系セニョリータ(karaoke)
EXTD=
EXTT0=
EXTT1=
EXTT2=
PLAYORDER=
